<svg width="25" height="25" viewBox="0 0 25 25" fill="none" xmlns="http://www.w3.org/2000/svg">
<circle cx="12.5" cy="12.5" r="12.5" fill="#01C3FF"/>
<g clip-path="url(#clip0)">
<path fill-rule="evenodd" clip-rule="evenodd" d="M6.99199 12.0622H19.0626C19.3032 12.0622 19.5001 12.2591 19.5001 12.4997C19.5001 12.7403 19.3032 12.9372 19.0626 12.9372H6.99199L11.0564 17.0016C11.227 17.1722 11.227 17.4478 11.0564 17.6185C10.8857 17.7891 10.6101 17.7891 10.4395 17.6185L5.62699 12.806C5.45637 12.6353 5.45637 12.3597 5.62699 12.1891L10.4395 7.3766C10.6101 7.20597 10.8857 7.20597 11.0564 7.3766C11.227 7.54722 11.227 7.82285 11.0564 7.99347L6.99199 12.0622Z" fill="white"/>
</g>
<defs>
<clipPath id="clip0">
<rect width="14" height="10.5" fill="white" transform="translate(5.5 7.25)"/>
</clipPath>
</defs>
</svg>
