<svg width="25" height="25" viewBox="0 0 25 25" fill="none" xmlns="http://www.w3.org/2000/svg">
<path d="M25 12.5C25 19.4036 19.4036 25 12.5 25C5.59644 25 0 19.4036 0 12.5C0 5.59644 5.59644 0 12.5 0C19.4036 0 25 5.59644 25 12.5Z" fill="#01C3FF"/>
<g clip-path="url(#clip0)">
<path d="M6.47956 15.4536H7.18011L6.793 18.6603L9.71944 15.4536H13.3204C13.5848 15.4536 13.8 15.185 13.8 14.8542V9.18185C13.8 8.85107 13.5848 8.5824 13.3204 8.5824H6.47956C6.21522 8.58096 6 8.84963 6 9.18185V14.8556C6 15.185 6.21522 15.4536 6.47956 15.4536Z" fill="white"/>
<path d="M18.3128 6.24817H8.5108C8.13091 6.24817 7.82324 6.55584 7.82324 6.93572V7.85872H13.3208C13.9838 7.85872 14.5226 8.45239 14.5226 9.18039V14.8527C14.5226 14.8585 14.5211 14.8657 14.5211 14.8715L17.8636 17.8037L17.3089 14.1276H18.3128C18.6927 14.1276 19.0004 13.8199 19.0004 13.4401V6.93572C19.0004 6.55584 18.6927 6.24817 18.3128 6.24817Z" fill="white"/>
</g>
<defs>
<clipPath id="clip0">
<rect width="13" height="12.4136" fill="white" transform="translate(6 6.24817)"/>
</clipPath>
</defs>
</svg>
