<svg width="20" height="20" viewBox="0 0 20 20" fill="none" xmlns="http://www.w3.org/2000/svg">
<path d="M10.883 9.99814L19.8143 1.06377C20.058 0.820019 20.058 0.423144 19.8143 0.179395C19.5705 -0.0643555 19.1736 -0.0643555 18.9299 0.179395L9.99863 9.11377L1.06426 0.18252C0.820508 -0.0612305 0.423633 -0.0612305 0.179883 0.18252C-0.0638672 0.426269 -0.0638672 0.823144 0.179883 1.06689L9.11426 9.99814L0.183008 18.9325C-0.0607422 19.1763 -0.0607422 19.5731 0.183008 19.8169C0.304883 19.9356 0.464258 19.9981 0.623633 19.9981C0.783008 19.9981 0.942383 19.9388 1.06426 19.8138L9.99863 10.8825L18.933 19.8169C19.0549 19.9356 19.2143 19.9981 19.3736 19.9981C19.533 19.9981 19.6924 19.9388 19.8143 19.8138C20.058 19.57 20.058 19.1731 19.8143 18.9294L10.883 9.99814Z" fill="#979191"/>
</svg>
