<svg width="13" height="13" viewBox="0 0 13 13" fill="none" xmlns="http://www.w3.org/2000/svg">
<path fill-rule="evenodd" clip-rule="evenodd" d="M6.94373 13H0.717539C0.321141 13 0 12.6787 0 12.2825V0.717539C0 0.321141 0.321141 0 0.717539 0H12.2826C12.6788 0 13 0.321141 13 0.717539V12.2825C13 12.6788 12.6788 13 12.2826 13H8.9698V7.96565H10.6596L10.9126 6.00366H8.9698V4.75109C8.9698 4.18305 9.12752 3.796 9.94205 3.796L10.9809 3.79559V2.0408C10.8013 2.01693 10.1846 1.96351 9.46705 1.96351C7.9691 1.96351 6.94362 2.87788 6.94362 4.55691V6.00377H5.24956V7.96575H6.94373V13Z" fill="#888888"/>
</svg>
