<svg width="25" height="24" viewBox="0 0 25 24" fill="none" xmlns="http://www.w3.org/2000/svg">
<path fill-rule="evenodd" clip-rule="evenodd" d="M12.9996 23.9283H1.53948C0.809853 23.9283 0.21875 23.3368 0.21875 22.6075V1.32073C0.21875 0.591103 0.809853 0 1.53948 0H22.8265C23.5557 0 24.147 0.591103 24.147 1.32073V22.6075C24.147 23.337 23.5557 23.9283 22.8265 23.9283H16.7289V14.6619H19.8392L20.3049 11.0506H16.7289V8.74504C16.7289 7.69948 17.0192 6.98706 18.5185 6.98706L20.4307 6.98631V3.75637C20.1 3.71243 18.9649 3.6141 17.6441 3.6141C14.887 3.6141 12.9994 5.29712 12.9994 8.38761V11.0507H9.88129V14.6621H12.9996V23.9283Z" fill="#DADADA"/>
</svg>
