<svg width="31" height="19" viewBox="0 0 31 19" fill="none" xmlns="http://www.w3.org/2000/svg">
<path d="M18.8477 8.30664H9.96094V11.5293H15.2832C15.0879 12.8965 13.6719 15.582 9.96094 15.582C6.78711 15.582 4.15039 12.9453 4.15039 9.625C4.15039 6.35352 6.78711 3.7168 9.96094 3.7168C11.8164 3.7168 13.0371 4.49805 13.7207 5.18164L16.2598 2.74023C14.5996 1.17773 12.5 0.25 9.96094 0.25C4.78516 0.25 0.585938 4.44922 0.585938 9.625C0.585938 14.8496 4.78516 19 9.96094 19C15.3809 19 18.9941 15.2402 18.9941 9.86914C18.9941 9.23438 18.8965 8.79492 18.8477 8.30664ZM27.8809 8.59961V5.91406H25.1465V8.59961H22.4121V11.334H25.1465V14.0684H27.8809V11.334H30.6152V8.59961H27.8809Z" fill="white"/>
</svg>
