<svg width="20" height="19" viewBox="0 0 20 19" fill="none" xmlns="http://www.w3.org/2000/svg">
<path d="M12.1327 18.4991C11.8207 18.4991 11.5532 18.2317 11.5532 17.9196V13.0608H8.4329V17.9196C8.4329 18.2317 8.21002 18.4991 7.89799 18.4991H2.99461C2.638 18.4991 2.41512 18.2317 2.41512 17.9196V7.53338L0.944101 8.78151C0.676644 8.95982 0.320034 8.95982 0.141729 8.69236C-0.0811517 8.46948 -0.0365756 8.11287 0.230882 7.88999C3.35122 5.30457 6.47155 2.71915 9.63646 0.133729C9.85934 -0.0445762 10.1714 -0.0445762 10.3943 0.133729C13.5146 2.71915 16.6795 5.30457 19.7998 7.88999C20.0227 8.11287 20.0673 8.46948 19.889 8.69236C19.6661 8.95982 19.3095 8.95982 19.0866 8.78151L17.6156 7.53338V17.9196C17.6156 18.2317 17.3481 18.4991 17.0361 18.4991H12.1327ZM3.52952 6.64185V17.3401H7.3185V12.5259C7.3185 12.1693 7.58595 11.9464 7.89799 11.9464H12.1327C12.4448 11.9464 12.7122 12.2139 12.7122 12.5259V17.3401H16.4566V6.64185L9.99307 1.29271L3.52952 6.64185Z" fill="#636363"/>
</svg>
