<svg width="50" height="51" viewBox="0 0 50 51" fill="none" xmlns="http://www.w3.org/2000/svg">
<circle cx="25" cy="25.7495" r="25" fill="#01C3FF"/>
<path fill-rule="evenodd" clip-rule="evenodd" d="M25.8082 15.522L25.8082 37.9371C25.8082 38.3839 25.4426 38.7495 24.9958 38.7495C24.549 38.7495 24.1834 38.3839 24.1834 37.9371L24.1834 15.522L16.6358 23.0695C16.319 23.3863 15.8071 23.3863 15.4903 23.0695C15.1734 22.7526 15.1734 22.2408 15.4903 21.924L24.4271 12.9871C24.7439 12.6703 25.2558 12.6703 25.5726 12.9871L34.5094 21.924C34.8263 22.2408 34.8263 22.7526 34.5094 23.0695C34.1926 23.3863 33.6807 23.3863 33.3639 23.0695L25.8082 15.522Z" fill="white"/>
</svg>
