<svg width="13" height="13" viewBox="0 0 13 13" fill="none" xmlns="http://www.w3.org/2000/svg">
<path fill-rule="evenodd" clip-rule="evenodd" d="M10.7497 3.03032C10.7497 3.46115 10.4004 3.81032 9.96968 3.81032C9.53895 3.81032 9.18968 3.46115 9.18968 3.03032C9.18968 2.59949 9.53895 2.25032 9.96968 2.25032C10.4005 2.25032 10.7497 2.59949 10.7497 3.03032ZM6.5 8.66663C5.30339 8.66663 4.33337 7.69661 4.33337 6.5C4.33337 5.30339 5.30339 4.33337 6.5 4.33337C7.69661 4.33337 8.66663 5.30339 8.66663 6.5C8.66663 7.69661 7.69661 8.66663 6.5 8.66663ZM6.5 3.16215C4.65654 3.16215 3.16215 4.65654 3.16215 6.5C3.16215 8.34346 4.65654 9.83785 6.5 9.83785C8.34346 9.83785 9.83785 8.34346 9.83785 6.5C9.83785 4.65654 8.34346 3.16215 6.5 3.16215ZM6.5 1.17122C8.2356 1.17122 8.44116 1.17782 9.12651 1.2091C9.76026 1.23805 10.1045 1.34388 10.3335 1.43295C10.6368 1.55086 10.8534 1.69173 11.0809 1.91923C11.3084 2.14663 11.4492 2.36316 11.5672 2.66663C11.6561 2.89565 11.7621 3.23984 11.791 3.87359C11.8223 4.55904 11.8289 4.7646 11.8289 6.5002C11.8289 8.2358 11.8223 8.44137 11.791 9.12671C11.7621 9.76046 11.6562 10.1047 11.5672 10.3337C11.4492 10.637 11.3084 10.8536 11.0809 11.0811C10.8535 11.3086 10.6369 11.4494 10.3335 11.5674C10.1045 11.6563 9.76026 11.7623 9.12651 11.7912C8.44116 11.8225 8.2356 11.8291 6.5 11.8291C4.7643 11.8291 4.55873 11.8225 3.87339 11.7912C3.23964 11.7623 2.89545 11.6564 2.66642 11.5674C2.36305 11.4494 2.14652 11.3086 1.91902 11.0811C1.69162 10.8537 1.55066 10.6371 1.43274 10.3337C1.34377 10.1047 1.23784 9.76046 1.2089 9.12671C1.17762 8.44127 1.17102 8.2357 1.17102 6.5002C1.17102 4.7646 1.17762 4.55904 1.2089 3.87359C1.23784 3.23984 1.34367 2.89565 1.43274 2.66663C1.55066 2.36326 1.69152 2.14673 1.91902 1.91923C2.14642 1.69173 2.36295 1.55086 2.66642 1.43295C2.89545 1.34398 3.23964 1.23805 3.87339 1.2091C4.55884 1.17782 4.7644 1.17122 6.5 1.17122ZM6.5 0C4.73474 0 4.51334 0.00751563 3.82007 0.0391016C3.12823 0.0706875 2.65566 0.180578 2.2423 0.34125C1.81482 0.507305 1.45234 0.729625 1.09098 1.09098C0.729625 1.45234 0.507305 1.81482 0.34125 2.2423C0.180578 2.65576 0.0706875 3.12823 0.0391016 3.82007C0.00751563 4.51334 0 4.73474 0 6.5C0 8.26526 0.00751563 8.48666 0.0391016 9.17993C0.0706875 9.87177 0.180578 10.3442 0.34125 10.7577C0.507305 11.1852 0.729625 11.5477 1.09098 11.909C1.45234 12.2704 1.81482 12.4926 2.2423 12.6587C2.65576 12.8194 3.12823 12.9293 3.82007 12.9609C4.51334 12.9925 4.73474 13 6.5 13C8.26526 13 8.48666 12.9925 9.17993 12.9609C9.87177 12.9293 10.3442 12.8194 10.7577 12.6587C11.1852 12.4926 11.5477 12.2704 11.909 11.909C12.2704 11.5477 12.4926 11.1852 12.6587 10.7577C12.8194 10.3442 12.9293 9.87177 12.9609 9.17993C12.9925 8.48666 13 8.26526 13 6.5C13 4.73474 12.9925 4.51334 12.9609 3.82007C12.9293 3.12823 12.8194 2.65576 12.6587 2.2423C12.4926 1.81482 12.2704 1.45234 11.909 1.09098C11.5477 0.729625 11.1852 0.507406 10.7577 0.34125C10.3442 0.180578 9.87177 0.0706875 9.17993 0.0391016C8.48666 0.00751563 8.26526 0 6.5 0Z" fill="#888888"/>
</svg>
