<svg width="23" height="23" viewBox="0 0 23 23" fill="none" xmlns="http://www.w3.org/2000/svg">
<path d="M11.4375 6.00977C8.3125 6.00977 5.82227 8.54883 5.82227 11.625C5.82227 14.75 8.3125 17.2402 11.4375 17.2402C14.5137 17.2402 17.0527 14.75 17.0527 11.625C17.0527 8.54883 14.5137 6.00977 11.4375 6.00977ZM11.4375 15.2871C9.43555 15.2871 7.77539 13.6758 7.77539 11.625C7.77539 9.62305 9.38672 8.01172 11.4375 8.01172C13.4395 8.01172 15.0508 9.62305 15.0508 11.625C15.0508 13.6758 13.4395 15.2871 11.4375 15.2871ZM18.5664 5.81445C18.5664 5.08203 17.9805 4.49609 17.248 4.49609C16.5156 4.49609 15.9297 5.08203 15.9297 5.81445C15.9297 6.54688 16.5156 7.13281 17.248 7.13281C17.9805 7.13281 18.5664 6.54688 18.5664 5.81445ZM22.2773 7.13281C22.1797 5.375 21.7891 3.8125 20.5195 2.54297C19.25 1.27344 17.6875 0.882812 15.9297 0.785156C14.123 0.6875 8.70312 0.6875 6.89648 0.785156C5.13867 0.882812 3.625 1.27344 2.30664 2.54297C1.03711 3.8125 0.646484 5.375 0.548828 7.13281C0.451172 8.93945 0.451172 14.3594 0.548828 16.166C0.646484 17.9238 1.03711 19.4375 2.30664 20.7559C3.625 22.0254 5.13867 22.416 6.89648 22.5137C8.70312 22.6113 14.123 22.6113 15.9297 22.5137C17.6875 22.416 19.25 22.0254 20.5195 20.7559C21.7891 19.4375 22.1797 17.9238 22.2773 16.166C22.375 14.3594 22.375 8.93945 22.2773 7.13281ZM19.9336 18.0703C19.5918 19.0469 18.8105 19.7793 17.8828 20.1699C16.418 20.7559 13 20.6094 11.4375 20.6094C9.82617 20.6094 6.4082 20.7559 4.99219 20.1699C4.01562 19.7793 3.2832 19.0469 2.89258 18.0703C2.30664 16.6543 2.45312 13.2363 2.45312 11.625C2.45312 10.0625 2.30664 6.64453 2.89258 5.17969C3.2832 4.25195 4.01562 3.51953 4.99219 3.12891C6.4082 2.54297 9.82617 2.68945 11.4375 2.68945C13 2.68945 16.418 2.54297 17.8828 3.12891C18.8105 3.4707 19.543 4.25195 19.9336 5.17969C20.5195 6.64453 20.373 10.0625 20.373 11.625C20.373 13.2363 20.5195 16.6543 19.9336 18.0703Z" fill="#01C3FF"/>
</svg>
