<svg width="25" height="25" viewBox="0 0 25 25" fill="none" xmlns="http://www.w3.org/2000/svg">
<path fill-rule="evenodd" clip-rule="evenodd" d="M20.6242 5.75228C20.6242 6.57009 19.9612 7.2329 19.1436 7.2329C18.326 7.2329 17.663 6.57009 17.663 5.75228C17.663 4.93446 18.326 4.27165 19.1436 4.27165C19.9614 4.27165 20.6242 4.93446 20.6242 5.75228ZM12.5573 16.4514C10.2859 16.4514 8.44452 14.61 8.44452 12.3386C8.44452 10.0671 10.2859 8.22577 12.5573 8.22577C14.8288 8.22577 16.6701 10.0671 16.6701 12.3386C16.6701 14.61 14.8288 16.4514 12.5573 16.4514ZM12.5573 6.00252C9.05798 6.00252 6.22127 8.83923 6.22127 12.3386C6.22127 15.8379 9.05798 18.6746 12.5573 18.6746C16.0566 18.6746 18.8934 15.8379 18.8934 12.3386C18.8934 8.83923 16.0566 6.00252 12.5573 6.00252ZM12.5573 2.22325C15.8519 2.22325 16.2421 2.23579 17.5431 2.29517C18.7461 2.35011 19.3994 2.551 19.8342 2.72007C20.41 2.9439 20.8211 3.2113 21.2529 3.64315C21.6848 4.07481 21.9522 4.48584 22.176 5.0619C22.3449 5.49664 22.546 6.15 22.6009 7.35301C22.6603 8.65415 22.6728 9.04436 22.6728 12.3389C22.6728 15.6335 22.6603 16.0237 22.6009 17.3247C22.546 18.5277 22.3451 19.1811 22.176 19.6158C21.9522 20.1917 21.6848 20.6027 21.2529 21.0345C20.8213 21.4664 20.4102 21.7338 19.8342 21.9576C19.3994 22.1265 18.7461 22.3276 17.5431 22.3825C16.2421 22.4419 15.8519 22.4544 12.5573 22.4544C9.26253 22.4544 8.87232 22.4419 7.57138 22.3825C6.36837 22.3276 5.715 22.1267 5.28026 21.9576C4.7044 21.7338 4.29337 21.4664 3.86152 21.0345C3.42986 20.6029 3.16227 20.1919 2.93844 19.6158C2.76956 19.1811 2.56847 18.5277 2.51353 17.3247C2.45415 16.0236 2.44162 15.6333 2.44162 12.3389C2.44162 9.04436 2.45415 8.65415 2.51353 7.35301C2.56847 6.15 2.76936 5.49664 2.93844 5.0619C3.16227 4.48603 3.42967 4.075 3.86152 3.64315C4.29317 3.2113 4.7042 2.9439 5.28026 2.72007C5.715 2.55119 6.36837 2.35011 7.57138 2.29517C8.87252 2.23579 9.26272 2.22325 12.5573 2.22325ZM12.5573 0C9.20643 0 8.78615 0.0142665 7.47016 0.0742242C6.15688 0.134182 5.25982 0.342781 4.47517 0.647774C3.66371 0.962986 2.97565 1.385 2.2897 2.07095C1.60375 2.7569 1.18174 3.44496 0.866524 4.25642C0.561531 5.04127 0.352932 5.93813 0.292974 7.25141C0.233016 8.5674 0.21875 8.98768 0.21875 12.3386C0.21875 15.6894 0.233016 16.1097 0.292974 17.4257C0.352932 18.739 0.561531 19.6359 0.866524 20.4207C1.18174 21.2322 1.60375 21.9202 2.2897 22.6062C2.97565 23.2921 3.66371 23.7139 4.47517 24.0294C5.26002 24.3343 6.15688 24.5429 7.47016 24.6029C8.78615 24.6629 9.20643 24.6771 12.5573 24.6771C15.9082 24.6771 16.3285 24.6629 17.6445 24.6029C18.9577 24.5429 19.8546 24.3343 20.6395 24.0294C21.4509 23.7139 22.139 23.2921 22.8249 22.6062C23.5109 21.9202 23.9327 21.2322 24.2481 20.4207C24.5531 19.6359 24.7617 18.739 24.8216 17.4257C24.8816 16.1097 24.8959 15.6894 24.8959 12.3386C24.8959 8.98768 24.8816 8.5674 24.8216 7.25141C24.7617 5.93813 24.5531 5.04127 24.2481 4.25642C23.9327 3.44496 23.5109 2.7569 22.8249 2.07095C22.139 1.385 21.4509 0.963179 20.6395 0.647774C19.8546 0.342781 18.9577 0.134182 17.6445 0.0742242C16.3285 0.0142665 15.9082 0 12.5573 0Z" fill="#DADADA"/>
</svg>
