<svg width="13" height="17" viewBox="0 0 13 17" fill="none" xmlns="http://www.w3.org/2000/svg">
<g clip-path="url(#clip0)">
<path fill-rule="evenodd" clip-rule="evenodd" d="M12.9926 7.78093C13.1036 6.55628 11.9415 6.1978 11.4807 6.1978C9.6931 6.1978 7.90548 6.1978 6.11972 6.19598C6.37694 5.64462 6.68968 4.18522 6.29552 2.17447C6.13822 1.38108 5.66078 0.851552 5.05196 0.86247C4.56157 0.871569 4.09523 1.24279 4.04527 1.70499C3.9916 2.2145 3.86391 2.93874 3.74363 3.43369C3.36057 5.01864 1.30278 7.11129 0 7.84098V15.5819C0.882705 16.0733 1.84128 16.2443 2.86278 16.2261C4.47829 16.1952 9.09537 16.2225 9.93181 16.217C10.524 16.2134 11.1143 15.935 11.3974 15.2326C11.786 14.2736 10.7849 13.7932 10.7849 13.7932C10.7849 13.7932 11.8804 13.846 12.1302 12.8815C12.3875 11.8898 11.3789 11.4986 11.3789 11.4986C12.0599 11.4258 12.4967 11.2511 12.6614 10.6469C12.8557 9.93545 12.3893 9.40228 11.6547 9.09293C11.7657 9.08201 12.8908 8.90368 12.9926 7.78093Z" fill="#C5C5C5"/>
</g>
<defs>
<clipPath id="clip0">
<rect width="13" height="15.3636" fill="white" transform="translate(0 0.863281)"/>
</clipPath>
</defs>
</svg>
