<svg width="25" height="25" viewBox="0 0 25 25" fill="none" xmlns="http://www.w3.org/2000/svg">
<path d="M12.4998 15.5938C15.4752 15.5938 17.8873 13.1818 17.8873 10.2063C17.8873 7.23091 15.4752 4.81885 12.4998 4.81885C9.52437 4.81885 7.1123 7.23091 7.1123 10.2063C7.1123 13.1818 9.52437 15.5938 12.4998 15.5938Z" fill="#636363"/>
<path d="M12.5 0C5.59375 0 0 5.59375 0 12.5C0 19.4062 5.59375 25 12.5 25C19.4062 25 25 19.4062 25 12.5C25 5.59375 19.4062 0 12.5 0ZM20.1813 20.8625C19.8438 20.3813 19.4688 19.9312 19.0562 19.5125C15.4437 15.8875 9.58125 15.875 5.95625 19.4875C5.95 19.4937 5.9375 19.5063 5.93125 19.5125C5.51875 19.9312 5.14375 20.3813 4.80625 20.8625C0.18125 16.6188 -0.125 9.43125 4.1125 4.80625C8.35 0.18125 15.5437 -0.125 20.1688 4.11875C24.7938 8.3625 25.1 15.55 20.8625 20.175C20.6438 20.4125 20.4125 20.6437 20.1688 20.8687H20.1813V20.8625Z" fill="#636363"/>
</svg>
