<svg width="25" height="26" viewBox="0 0 25 26" fill="none" xmlns="http://www.w3.org/2000/svg">
<g clip-path="url(#clip0)">
<path d="M18.1858 17.2153C21.7592 12.829 21.1016 6.37579 16.7153 2.80238C12.329 -0.771033 5.87579 -0.113504 2.30238 4.2728C-1.27103 8.65911 -0.613504 15.1123 3.7728 18.6857C7.54042 21.7542 12.9477 21.7542 16.7153 18.6857L23.2213 25.1917C23.6263 25.5995 24.2839 25.6023 24.6917 25.1972C25.0995 24.7922 25.1023 24.1346 24.6972 23.7268C24.6945 23.724 24.6945 23.724 24.6917 23.7213L18.1858 17.2153ZM10.2565 18.9077C5.75649 18.9077 2.10817 15.2594 2.10817 10.7565C2.10817 6.25372 5.75649 2.60817 10.2565 2.60817C14.7566 2.60817 18.4077 6.25649 18.4077 10.7593C18.4022 15.2566 14.7566 18.9021 10.2565 18.9077Z" fill="#636363"/>
</g>
<defs>
<clipPath id="clip0">
<rect width="25" height="25" fill="white" transform="translate(0 0.5)"/>
</clipPath>
</defs>
</svg>
