<svg width="23" height="23" viewBox="0 0 23 23" fill="none" xmlns="http://www.w3.org/2000/svg">
<path d="M16.7313 15.3781C20.0189 11.3427 19.4139 5.40569 15.3785 2.11815C11.3431 -1.16939 5.40618 -0.564463 2.11864 3.47094C-1.1689 7.50634 -0.563974 13.4433 3.47143 16.7308C6.93764 19.5538 11.9123 19.5538 15.3785 16.7308L21.364 22.7163C21.7367 23.0915 22.3416 23.0941 22.7168 22.7214C23.092 22.3488 23.0946 21.7438 22.7219 21.3686C22.7194 21.3661 22.7194 21.3661 22.7168 21.3635L16.7313 15.3781ZM9.43647 16.935C5.29642 16.935 1.93997 13.5786 1.93997 9.43598C1.93997 5.29338 5.29642 1.93948 9.43647 1.93948C13.5765 1.93948 16.9355 5.29593 16.9355 9.43853C16.9304 13.576 13.5765 16.9299 9.43647 16.935Z" fill="#636363"/>
</svg>
