<svg width="25" height="26" viewBox="0 0 25 26" fill="none" xmlns="http://www.w3.org/2000/svg">
<path d="M18.1862 17.2153C21.7596 12.829 21.1021 6.37579 16.7158 2.80238C12.3295 -0.771033 5.87628 -0.113504 2.30287 4.2728C-1.27055 8.65911 -0.613016 15.1123 3.77329 18.6857C7.54091 21.7542 12.9482 21.7542 16.7158 18.6857L23.2218 25.1917C23.6268 25.5995 24.2843 25.6023 24.6922 25.1972C25.1 24.7922 25.1028 24.1346 24.6977 23.7268C24.695 23.724 24.695 23.724 24.6922 23.7213L18.1862 17.2153ZM10.257 18.9077C5.75698 18.9077 2.10866 15.2594 2.10866 10.7565C2.10866 6.25372 5.75698 2.60817 10.257 2.60817C14.7571 2.60817 18.4082 6.25649 18.4082 10.7593C18.4026 15.2566 14.7571 18.9021 10.257 18.9077Z" fill="white"/>
</svg>
